<?xml version="1.0" encoding="UTF-8" standalone="no"?>
<!-- Created with Inkscape (http://www.inkscape.org/) -->

<svg
   xmlns:dc="http://purl.org/dc/elements/1.1/"
   xmlns:cc="http://creativecommons.org/ns#"
   xmlns:rdf="http://www.w3.org/1999/02/22-rdf-syntax-ns#"
   xmlns:svg="http://www.w3.org/2000/svg"
   xmlns="http://www.w3.org/2000/svg"
   xmlns:sodipodi="http://sodipodi.sourceforge.net/DTD/sodipodi-0.dtd"
   xmlns:inkscape="http://www.inkscape.org/namespaces/inkscape"
   width="210mm"
   height="297mm"
   viewBox="0 0 210 297"
   version="1.1"
   id="svg3866"
   inkscape:version="0.92.3 (2405546, 2018-03-11)"
   sodipodi:docname="isotipoBlanco.svg">
  <defs
     id="defs3860" />
  <sodipodi:namedview
     id="base"
     pagecolor="#ffffff"
     bordercolor="#666666"
     borderopacity="1.0"
     inkscape:pageopacity="0.0"
     inkscape:pageshadow="2"
     inkscape:zoom="0.35"
     inkscape:cx="400"
     inkscape:cy="560"
     inkscape:document-units="mm"
     inkscape:current-layer="layer1"
     showgrid="false"
     inkscape:window-width="1853"
     inkscape:window-height="1025"
     inkscape:window-x="1987"
     inkscape:window-y="27"
     inkscape:window-maximized="1" />
  <metadata
     id="metadata3863">
    <rdf:RDF>
      <cc:Work
         rdf:about="">
        <dc:format>image/svg+xml</dc:format>
        <dc:type
           rdf:resource="http://purl.org/dc/dcmitype/StillImage" />
        <dc:title></dc:title>
      </cc:Work>
    </rdf:RDF>
  </metadata>
  <g
     inkscape:label="Layer 1"
     inkscape:groupmode="layer"
     id="layer1">
    <g
       transform="matrix(3.3216005,0,0,3.0132687,-223.91053,-6.8797832)"
       id="g82">
      <circle
         cx="98.879997"
         cy="58.619999"
         r="5.29"
         id="circle66" />
      <path
         inkscape:connector-curvature="0"
         d="m 125.29,53.29 c -1.66,-2 -3.49,-4.38 -5.12,-6.91 -0.05,-0.07 -0.09,-0.12 -0.13,-0.19 -0.92,-1.51 -1.98,-2.92 -3.21,-4.21 -2.17,-2.25 -4.74,-4.06 -7.73,-5.42 -2.99,-1.36 -6.26,-2.05 -9.82,-2.09 -3.56,-0.03 -6.85,0.6 -9.86,1.9 -3.01,1.3 -5.62,3.06 -7.83,5.27 -1.26,1.26 -2.35,2.65 -3.29,4.15 -0.05,0.07 -0.09,0.11 -0.14,0.18 -1.68,2.5 -3.55,4.85 -5.25,6.82 -2.46,1.82 -5.25,3.67 -5.27,5.6 -0.02,1.92 2.74,3.83 5.16,5.69 1.66,2 3.49,4.38 5.12,6.91 0.05,0.07 0.09,0.12 0.13,0.19 0.92,1.51 1.98,2.92 3.21,4.21 2.17,2.25 4.74,4.06 7.73,5.42 2.99,1.36 6.26,2.05 9.82,2.09 3.56,0.03 6.85,-0.6 9.86,-1.9 3.01,-1.3 5.62,-3.06 7.83,-5.27 1.26,-1.26 2.35,-2.65 3.29,-4.15 0.05,-0.07 0.09,-0.11 0.14,-0.18 1.68,-2.5 3.55,-4.85 5.25,-6.82 2.46,-1.82 5.25,-3.67 5.27,-5.6 0.02,-1.92 -2.74,-3.83 -5.16,-5.69 z M 114.65,59 c 0,0 -5.46,13.05 -15.73,12.36 -10.28,0.5 -15.49,-12.65 -15.49,-12.65 0,0 0.05,0.02 0.1,0.05 -0.03,-0.07 -0.09,-0.14 -0.1,-0.21 0,0 5.2,-12.36 14.98,-12.35 0.18,-0.01 0.36,-0.02 0.55,-0.02 0.07,0 0.13,0.01 0.2,0.01 0.07,0 0.13,-0.01 0.2,-0.01 0.19,0 0.36,0.02 0.54,0.03 9.78,0.16 14.75,12.62 14.75,12.62 -0.01,0.07 -0.07,0.14 -0.1,0.21 0.06,-0.02 0.1,-0.04 0.1,-0.04 z"
         id="path68" />
      <g
         id="g72">
        <path
           inkscape:connector-curvature="0"
           d="m 112.26,31.28 c -0.83,0 -1.66,-0.32 -2.29,-0.96 -1.24,-1.27 -1.22,-3.3 0.04,-4.54 l 6.82,-6.7 c 1.27,-1.25 3.3,-1.23 4.54,0.04 1.24,1.27 1.22,3.3 -0.04,4.54 l -6.82,6.7 c -0.62,0.62 -1.44,0.92 -2.25,0.92 z"
           id="path70" />
      </g>
      <g
         id="g76">
        <path
           inkscape:connector-curvature="0"
           d="m 84.62,31.28 c 0.83,0 1.66,-0.32 2.29,-0.96 1.24,-1.27 1.22,-3.3 -0.04,-4.54 l -6.82,-6.7 c -1.27,-1.25 -3.3,-1.23 -4.54,0.04 -1.24,1.27 -1.22,3.3 0.04,4.54 l 6.82,6.7 c 0.63,0.62 1.44,0.92 2.25,0.92 z"
           id="path74" />
      </g>
      <g
         id="g80">
        <path
           inkscape:connector-curvature="0"
           d="m 99.32,29.2 c -0.01,0 -0.02,0 -0.03,0 -1.77,-0.02 -3.2,-1.47 -3.18,-3.24 l 0.1,-11.11 c 0.02,-1.76 1.45,-3.18 3.21,-3.18 0.01,0 0.02,0 0.03,0 1.77,0.02 3.2,1.47 3.18,3.24 l -0.1,11.11 c -0.02,1.76 -1.45,3.18 -3.21,3.18 z"
           id="path78" />
      </g>
    </g>
    <path
       style="fill:#ffffff;stroke-width:2.85714293"
       d="M 337.13451,911.6436 C 285.54486,902.32723 233.5023,879.02354 194.71073,847.86886 168.09391,826.49209 158.12338,815.74034 130.93033,779.09111 95.828986,731.78357 70.293549,703.14189 52.953183,691.62854 29.932997,676.344 7.4970411,654.22309 5.419,644.76182 c -3.3561437,-15.28042 9.155998,-30.5622 45.852457,-56.00218 23.142303,-16.0435 44.853037,-39.1491 84.255323,-89.66853 15.32031,-19.64285 32.17276,-39.7604 37.44988,-44.70566 95.22186,-89.23367 245.32865,-112.09161 364.25237,-55.46757 54.71886,26.05369 84.35877,50.78389 123.01011,102.63401 40.29275,54.05204 60.82646,76.86702 83.95435,93.28155 28.16705,19.99096 45.5208,38.76444 45.5208,49.24488 0,13.00414 -12.04332,26.96631 -40.91055,47.42877 -29.04685,20.58977 -49.112,41.47942 -88.58671,92.22674 -48.43189,62.26237 -94.77809,96.04417 -161.93132,118.03188 -43.08645,14.10763 -113.74528,18.43872 -161.1512,9.87789 z M 443.7054,783.26986 c 48.77826,-11.49803 98.56991,-52.05555 135.7096,-110.54149 17.53709,-27.6166 17.52637,-26.89438 0.81006,-54.64531 -19.93495,-33.0942 -39.189,-55.95118 -64.34823,-76.38945 -36.69394,-29.8086 -61.86749,-39.56496 -107.88637,-41.8129 -53.95963,-2.63584 -91.088,9.56504 -132.69569,43.60558 -27.55626,22.54464 -74.15191,83.68002 -74.15191,97.2903 0,9.90735 24.23861,49.13164 46.04176,74.50738 28.57935,33.26229 68.92075,59.94977 103.14961,68.23774 21.08494,5.10538 71.21777,4.97015 93.37117,-0.252 z"
       id="path92"
       inkscape:connector-curvature="0"
       transform="scale(0.26458333)" />
    <path
       style="fill:#ffffff;stroke-width:2.85714293"
       d="m 368.28571,695.26873 c -30.84067,-13.99731 -45.55982,-45.34574 -34.13414,-72.69796 10.2958,-24.6474 33.02618,-39.0726 61.277,-38.88776 22.17726,0.14511 38.09622,7.27985 50.89986,22.81287 21.96754,26.65044 15.71111,63.43304 -14.15083,83.19517 -10.10925,6.69013 -15.52355,8.09176 -33.68297,8.7197 -13.67647,0.47292 -24.79115,-0.68312 -30.20892,-3.14202 z"
       id="path94"
       inkscape:connector-curvature="0"
       transform="scale(0.26458333)" />
    <path
       style="fill:#ffffff;stroke-width:2.85714293"
       d="m 195.35002,322.85285 c -10.81115,-7.36072 -79.96124,-68.65403 -92.06431,-81.60403 -8.890936,-9.5131 -10.714281,-13.52395 -10.714281,-23.56842 0,-26.66684 30.283221,-43.8586 54.865051,-31.14684 12.96488,6.7044 100.89677,85.82533 104.72805,94.23407 10.27834,22.5585 -8.80459,46.86111 -36.81451,46.88423 -7.43845,0.006 -15.9378,-2.03328 -20,-4.79901 z"
       id="path96"
       inkscape:connector-curvature="0"
       transform="scale(0.26458333)" />
    <path
       style="fill:#ffffff;stroke-width:2.85714293"
       d="m 381.09828,299.5631 c -17.49564,-9.21282 -19.98271,-18.2981 -19.68258,-71.90056 0.42548,-75.98794 2.70146,-98.15059 10.98462,-106.96387 15.69087,-16.69508 42.16213,-16.07085 58.86118,1.38801 l 8.45279,8.83739 v 73.49674 c 0,66.0289 -0.52382,74.29598 -5.15524,81.36278 -11.76892,17.95742 -34.43302,23.79909 -53.46077,13.77951 z"
       id="path98"
       inkscape:connector-curvature="0"
       transform="scale(0.26458333)" />
    <path
       style="fill:#ffffff;stroke-width:2.85714293"
       d="M 544.08576,324.00737 C 535.14103,319.48129 524,303.12394 524,294.51731 c 0,-13.38261 7.95213,-22.61579 56.49057,-65.5909 53.30128,-47.19206 59.6984,-50.73651 80.38471,-44.53874 20.16633,6.04198 30.96834,27.19584 23.31826,45.66477 -3.05195,7.36806 -81.7859,80.2887 -99.97275,92.59128 -8.64756,5.84968 -29.84606,6.56993 -40.13503,1.36365 z"
       id="path100"
       inkscape:connector-curvature="0"
       transform="scale(0.26458333)" />
  </g>
</svg>
