<?xml version="1.0" encoding="UTF-8" standalone="no"?>
<!-- Created with Inkscape (http://www.inkscape.org/) -->

<svg
   xmlns:dc="http://purl.org/dc/elements/1.1/"
   xmlns:cc="http://creativecommons.org/ns#"
   xmlns:rdf="http://www.w3.org/1999/02/22-rdf-syntax-ns#"
   xmlns:svg="http://www.w3.org/2000/svg"
   xmlns="http://www.w3.org/2000/svg"
   xmlns:sodipodi="http://sodipodi.sourceforge.net/DTD/sodipodi-0.dtd"
   xmlns:inkscape="http://www.inkscape.org/namespaces/inkscape"
   width="210mm"
   height="297mm"
   viewBox="0 0 210 297"
   version="1.1"
   id="svg3866"
   inkscape:version="0.92.3 (2405546, 2018-03-11)"
   sodipodi:docname="isotipo.svg">
  <defs
     id="defs3860" />
  <sodipodi:namedview
     id="base"
     pagecolor="#ffffff"
     bordercolor="#666666"
     borderopacity="1.0"
     inkscape:pageopacity="0.0"
     inkscape:pageshadow="2"
     inkscape:zoom="0.35"
     inkscape:cx="400"
     inkscape:cy="560"
     inkscape:document-units="mm"
     inkscape:current-layer="layer1"
     showgrid="false"
     inkscape:window-width="1920"
     inkscape:window-height="1052"
     inkscape:window-x="0"
     inkscape:window-y="0"
     inkscape:window-maximized="1" />
  <metadata
     id="metadata3863">
    <rdf:RDF>
      <cc:Work
         rdf:about="">
        <dc:format>image/svg+xml</dc:format>
        <dc:type
           rdf:resource="http://purl.org/dc/dcmitype/StillImage" />
        <dc:title></dc:title>
      </cc:Work>
    </rdf:RDF>
  </metadata>
  <g
     inkscape:label="Layer 1"
     inkscape:groupmode="layer"
     id="layer1">
    <g
       transform="matrix(3.3216005,0,0,3.0132687,-223.91053,-6.8797832)"
       id="g82">
      <circle
         cx="98.879997"
         cy="58.619999"
         r="5.29"
         id="circle66" />
      <path
         inkscape:connector-curvature="0"
         d="m 125.29,53.29 c -1.66,-2 -3.49,-4.38 -5.12,-6.91 -0.05,-0.07 -0.09,-0.12 -0.13,-0.19 -0.92,-1.51 -1.98,-2.92 -3.21,-4.21 -2.17,-2.25 -4.74,-4.06 -7.73,-5.42 -2.99,-1.36 -6.26,-2.05 -9.82,-2.09 -3.56,-0.03 -6.85,0.6 -9.86,1.9 -3.01,1.3 -5.62,3.06 -7.83,5.27 -1.26,1.26 -2.35,2.65 -3.29,4.15 -0.05,0.07 -0.09,0.11 -0.14,0.18 -1.68,2.5 -3.55,4.85 -5.25,6.82 -2.46,1.82 -5.25,3.67 -5.27,5.6 -0.02,1.92 2.74,3.83 5.16,5.69 1.66,2 3.49,4.38 5.12,6.91 0.05,0.07 0.09,0.12 0.13,0.19 0.92,1.51 1.98,2.92 3.21,4.21 2.17,2.25 4.74,4.06 7.73,5.42 2.99,1.36 6.26,2.05 9.82,2.09 3.56,0.03 6.85,-0.6 9.86,-1.9 3.01,-1.3 5.62,-3.06 7.83,-5.27 1.26,-1.26 2.35,-2.65 3.29,-4.15 0.05,-0.07 0.09,-0.11 0.14,-0.18 1.68,-2.5 3.55,-4.85 5.25,-6.82 2.46,-1.82 5.25,-3.67 5.27,-5.6 0.02,-1.92 -2.74,-3.83 -5.16,-5.69 z M 114.65,59 c 0,0 -5.46,13.05 -15.73,12.36 -10.28,0.5 -15.49,-12.65 -15.49,-12.65 0,0 0.05,0.02 0.1,0.05 -0.03,-0.07 -0.09,-0.14 -0.1,-0.21 0,0 5.2,-12.36 14.98,-12.35 0.18,-0.01 0.36,-0.02 0.55,-0.02 0.07,0 0.13,0.01 0.2,0.01 0.07,0 0.13,-0.01 0.2,-0.01 0.19,0 0.36,0.02 0.54,0.03 9.78,0.16 14.75,12.62 14.75,12.62 -0.01,0.07 -0.07,0.14 -0.1,0.21 0.06,-0.02 0.1,-0.04 0.1,-0.04 z"
         id="path68" />
      <g
         id="g72">
        <path
           inkscape:connector-curvature="0"
           d="m 112.26,31.28 c -0.83,0 -1.66,-0.32 -2.29,-0.96 -1.24,-1.27 -1.22,-3.3 0.04,-4.54 l 6.82,-6.7 c 1.27,-1.25 3.3,-1.23 4.54,0.04 1.24,1.27 1.22,3.3 -0.04,4.54 l -6.82,6.7 c -0.62,0.62 -1.44,0.92 -2.25,0.92 z"
           id="path70" />
      </g>
      <g
         id="g76">
        <path
           inkscape:connector-curvature="0"
           d="m 84.62,31.28 c 0.83,0 1.66,-0.32 2.29,-0.96 1.24,-1.27 1.22,-3.3 -0.04,-4.54 l -6.82,-6.7 c -1.27,-1.25 -3.3,-1.23 -4.54,0.04 -1.24,1.27 -1.22,3.3 0.04,4.54 l 6.82,6.7 c 0.63,0.62 1.44,0.92 2.25,0.92 z"
           id="path74" />
      </g>
      <g
         id="g80">
        <path
           inkscape:connector-curvature="0"
           d="m 99.32,29.2 c -0.01,0 -0.02,0 -0.03,0 -1.77,-0.02 -3.2,-1.47 -3.18,-3.24 l 0.1,-11.11 c 0.02,-1.76 1.45,-3.18 3.21,-3.18 0.01,0 0.02,0 0.03,0 1.77,0.02 3.2,1.47 3.18,3.24 l -0.1,11.11 c -0.02,1.76 -1.45,3.18 -3.21,3.18 z"
           id="path78" />
      </g>
    </g>
  </g>
</svg>
